{"title":"Rychly Prachy (PRAHA - 02.05.2011) - Veronika","uid":6374228,"size":343793187,"categoryP":"porn","categoryS":"movies","magnet":"?xt=urn:btih:237afb4ed8b8ab10ee95a395163566625ac2408e&amp;dn=Rychly+Prachy+%28PRAHA+-+02.05.2011%29+-+Veronika&amp;tr=udp%3A%2F%2Ftracker.openbittorrent.com%3A80&amp;tr=udp%3A%2F%2Fopen.demonii.com%3A1337&amp;tr=udp%3A%2F%2Ftracker.coppersurfer.tk%3A6969&amp;tr=udp%3A%2F%2Fexodus.desync.com%3A6969","seeders":2,"leechers":0,"uploader":null,"files":4,"time":1304795008,"description":"\n\n                Rychly Prachy (PRAHA - 02.05.2011) - Veronika\n\n\n\nScreen:         &lt;a href=&quot; http://image.bayimg.com/eahffaadp.jpg&quot; rel=&quot;nofollow&quot; target=&quot;_NEW&quot;&gt; http://image.bayimg.com/eahffaadp.jpg&lt;/a&gt;\n\nOficial website: http://rychlyprachy.cz/\n\nDirect Link:    &lt;a href=&quot; http://rychlyprachy.cz/video52.cz.html&quot; rel=&quot;nofollow&quot; target=&quot;_NEW&quot;&gt; http://rychlyprachy.cz/video52.cz.html&lt;/a&gt;\n\n\n\nGeneral\nComplete name                    : Rychly Prachy (PRAHA - 02.05.2011) - Veronika.wmv\nFormat                           : Windows Media\nFile size                        : 328 MiB\nDuration                         : 22mn 15s\nOverall bit rate mode            : Constant\nOverall bit rate                 : 2 058 Kbps\nMaximum Overall bit rate         : 2 068 Kbps\nEncoded date                     : UTC 2011-05-03 19:15:40.327\nSfOriginalFPS                    : 300000\n\nVideo\nID                               : 2\nFormat                           : VC-1\nFormat profile                   : MP@ML\nCodec ID                         : WMV3\nCodec ID/Info                    : Windows Media Video 9\nCodec ID/Hint                    : WMV3\nDescription of the codec         : Windows Media Video 9 - Professional\nDuration                         : 22mn 15s\nBit rate mode                    : Constant\nBit rate                         : 1 984 Kbps\nWidth                            : 640 pixels\nHeight                           : 480 pixels\nDisplay aspect ratio             : 4:3\nFrame rate                       : 30.000 fps\nBit depth                        : 8 bits\nScan type                        : Progressive\nCompression mode                 : Lossy\nBits/(Pixel*Frame)               : 0.215\nStream size                      : 316 MiB (96%)\nLanguage                         : Czech\n\nAudio\nID                               : 1\nFormat                           : WMA\nFormat version                   : Version 2\nCodec ID                         : 161\nCodec ID/Info                    : Windows Media Audio\nDescription of the codec         : Windows Media Audio 9.2 -  64 kbps, 44 kHz, stereo (A/V) 1-pass CBR\nDuration                         : 22mn 15s\nBit rate mode                    : Constant\nBit rate                         : 64.0 Kbps\nChannel(s)                       : 2 channels\nSampling rate                    : 44.1 KHz\nBit depth                        : 16 bits\nStream size                      : 10.2 MiB (3%)\nLanguage                         : Czech\n\n\n","torrent":{"xt":"urn:btih:237afb4ed8b8ab10ee95a395163566625ac2408e","amp;dn":"Rychly+Prachy+%28PRAHA+-+02.05.2011%29+-+Veronika","amp;tr":["udp%3A%2F%2Ftracker.openbittorrent.com%3A80","udp%3A%2F%2Fopen.demonii.com%3A1337","udp%3A%2F%2Ftracker.coppersurfer.tk%3A6969","udp%3A%2F%2Fexodus.desync.com%3A6969"],"infoHash":"237afb4ed8b8ab10ee95a395163566625ac2408e","infoHashBuffer":{"type":"Buffer","data":[35,122,251,78,216,184,171,16,238,149,163,149,22,53,102,98,90,194,64,142]},"announce":[],"urlList":[]}}